<?xml version="1.0" standalone="no"?>
<!DOCTYPE svg PUBLIC "-//W3C//DTD SVG 20010904//EN"
 "http://www.w3.org/TR/2001/REC-SVG-20010904/DTD/svg10.dtd">
<svg version="1.0" xmlns="http://www.w3.org/2000/svg"
 width="208.000000pt" height="60.000000pt" viewBox="0 0 208.000000 60.000000"
 preserveAspectRatio="xMidYMid meet">

<g transform="translate(0.000000,60.000000) scale(0.100000,-0.100000)"
fill="#000000" stroke="none">
<path d="M1483 482 c-23 -3 -23 -5 -23 -158 l0 -154 30 0 30 0 0 154 c0 85 -3
156 -7 158 -5 2 -18 2 -30 0z"/>
<path d="M844 466 c-10 -26 4 -48 28 -44 17 2 23 10 23 28 0 18 -6 26 -23 28
-13 2 -25 -3 -28 -12z"/>
<path d="M1126 464 c-8 -21 11 -44 35 -44 19 0 35 33 24 50 -10 16 -52 12 -59
-6z"/>
<path d="M110 320 l0 -150 30 0 c29 0 30 1 30 49 l0 49 43 7 c83 14 117 45
117 105 0 22 -9 41 -29 61 -28 27 -34 29 -110 29 l-81 0 0 -150z m140 90 c37
-37 17 -77 -43 -87 l-37 -6 0 57 c0 56 0 56 30 56 17 0 39 -9 50 -20z"/>
<path d="M718 443 c-10 -2 -18 -14 -18 -26 0 -17 -11 -26 -47 -39 -41 -15 -49
-15 -56 -3 -4 8 -15 15 -22 15 -12 0 -15 -21 -15 -110 l0 -110 30 0 30 0 0 69
c0 73 6 85 53 96 l27 7 0 -66 c0 -58 3 -70 25 -91 24 -25 88 -35 99 -16 11 17
-6 41 -29 41 -28 0 -35 17 -35 81 0 46 2 49 25 49 14 0 25 4 25 9 0 23 -14 41
-31 41 -14 0 -19 7 -19 30 0 30 -6 33 -42 23z"/>
<path d="M1830 360 l0 -50 -40 0 c-34 0 -42 4 -55 30 -25 49 -82 65 -140 38
-84 -38 -67 -181 24 -209 52 -16 106 -2 106 26 0 17 -6 20 -42 17 -32 -2 -47
2 -63 18 -12 12 -20 23 -18 24 2 2 54 6 116 10 l112 6 0 -50 c0 -49 1 -50 30
-50 29 0 30 1 30 50 l0 50 35 0 c28 0 35 4 35 19 0 15 -8 21 -32 23 -32 3 -33
5 -36 51 -3 45 -5 47 -33 47 -28 0 -29 -1 -29 -50z m-142 -42 c3 -15 -4 -18
-43 -18 -43 0 -45 1 -35 21 14 26 73 24 78 -3z"/>
<path d="M1296 385 c-20 -7 -39 -9 -42 -4 -3 5 -12 9 -20 9 -12 0 -14 -27 -14
-160 l0 -160 30 0 c29 0 30 1 30 51 l0 51 31 -7 c67 -15 119 37 119 118 0 34
-6 53 -25 75 -30 36 -61 43 -109 27z m54 -55 c11 -11 20 -33 20 -50 0 -28 -29
-70 -49 -70 -33 0 -41 14 -41 70 0 58 3 63 43 69 4 0 16 -8 27 -19z"/>
<path d="M378 383 c-19 -5 -22 -12 -12 -37 5 -13 14 -15 40 -10 21 4 40 2 49
-6 25 -20 17 -30 -23 -30 -55 0 -82 -23 -82 -69 0 -49 20 -66 73 -64 23 1 57
2 75 3 l32 0 0 85 c0 78 -2 88 -25 110 -19 19 -34 25 -67 24 -24 -1 -51 -3
-60 -6z m92 -136 c0 -20 -22 -37 -47 -37 -18 0 -23 6 -23 25 0 22 4 25 35 25
22 0 35 -5 35 -13z"/>
<path d="M840 280 l0 -110 30 0 30 0 0 110 0 110 -30 0 -30 0 0 -110z"/>
<path d="M960 363 c-87 -78 -14 -225 97 -197 29 7 39 15 41 33 4 22 1 23 -32
17 -20 -4 -44 -2 -55 3 -28 16 -37 66 -16 97 14 21 23 25 57 23 29 -3 42 1 49
13 13 23 -16 38 -70 38 -30 0 -49 -7 -71 -27z"/>
<path d="M1130 281 l0 -111 30 0 31 0 -3 108 -3 107 -27 3 -28 3 0 -110z"/>
</g>
</svg>
